<mxfile host="app.diagrams.net" modified="2023-02-18T14:33:23.757Z" agent="5.0 (Macintosh)" etag="Z-i3sPa2jWmwXObKSOaS" version="20.6.0" type="github">
  <diagram name="Page-1" id="74e2e168-ea6b-b213-b513-2b3c1d86103e">
    <mxGraphModel dx="970" dy="2351" grid="1" gridSize="10" guides="1" tooltips="1" connect="1" arrows="1" fold="1" page="1" pageScale="1" pageWidth="1100" pageHeight="850" background="none" math="0" shadow="0">
      <root>
        <mxCell id="0" />
        <mxCell id="1" parent="0" />
        <mxCell id="x8ZqoaQMToTmZbeyhLuj-1" value="&lt;font style=&quot;font-size: 25px;&quot;&gt;Established Network RX Process on Base Station&lt;br&gt;&lt;/font&gt;" style="text;html=1;strokeColor=none;fillColor=none;align=center;verticalAlign=middle;whiteSpace=wrap;rounded=0;" vertex="1" parent="1">
          <mxGeometry x="100" y="-1670" width="620" height="30" as="geometry" />
        </mxCell>
        <mxCell id="x8ZqoaQMToTmZbeyhLuj-11" style="edgeStyle=orthogonalEdgeStyle;rounded=0;orthogonalLoop=1;jettySize=auto;html=1;entryX=0.5;entryY=0;entryDx=0;entryDy=0;fontSize=12;" edge="1" parent="1" source="x8ZqoaQMToTmZbeyhLuj-2" target="x8ZqoaQMToTmZbeyhLuj-4">
          <mxGeometry relative="1" as="geometry" />
        </mxCell>
        <mxCell id="x8ZqoaQMToTmZbeyhLuj-2" value="" style="rounded=1;whiteSpace=wrap;html=1;fontSize=25;" vertex="1" parent="1">
          <mxGeometry x="30" y="-1600" width="240" height="120" as="geometry" />
        </mxCell>
        <mxCell id="x8ZqoaQMToTmZbeyhLuj-3" value="Interrupt comes from LoRa transmitter, packet received" style="text;html=1;strokeColor=none;fillColor=none;align=center;verticalAlign=middle;whiteSpace=wrap;rounded=0;fontSize=12;" vertex="1" parent="1">
          <mxGeometry x="40" y="-1590" width="220" height="100" as="geometry" />
        </mxCell>
        <mxCell id="x8ZqoaQMToTmZbeyhLuj-12" style="edgeStyle=orthogonalEdgeStyle;rounded=0;orthogonalLoop=1;jettySize=auto;html=1;exitX=0.5;exitY=1;exitDx=0;exitDy=0;entryX=0.5;entryY=0;entryDx=0;entryDy=0;fontSize=12;" edge="1" parent="1" source="x8ZqoaQMToTmZbeyhLuj-4" target="x8ZqoaQMToTmZbeyhLuj-6">
          <mxGeometry relative="1" as="geometry" />
        </mxCell>
        <mxCell id="x8ZqoaQMToTmZbeyhLuj-4" value="" style="rounded=1;whiteSpace=wrap;html=1;fontSize=25;" vertex="1" parent="1">
          <mxGeometry x="30" y="-1450" width="240" height="120" as="geometry" />
        </mxCell>
        <mxCell id="x8ZqoaQMToTmZbeyhLuj-5" value="Poll data from transmitter" style="text;html=1;strokeColor=none;fillColor=none;align=center;verticalAlign=middle;whiteSpace=wrap;rounded=0;fontSize=12;" vertex="1" parent="1">
          <mxGeometry x="40" y="-1440" width="220" height="100" as="geometry" />
        </mxCell>
        <mxCell id="x8ZqoaQMToTmZbeyhLuj-74" style="edgeStyle=orthogonalEdgeStyle;rounded=0;orthogonalLoop=1;jettySize=auto;html=1;exitX=0.5;exitY=1;exitDx=0;exitDy=0;entryX=0.5;entryY=0;entryDx=0;entryDy=0;fontSize=12;" edge="1" parent="1" source="x8ZqoaQMToTmZbeyhLuj-6" target="x8ZqoaQMToTmZbeyhLuj-32">
          <mxGeometry relative="1" as="geometry" />
        </mxCell>
        <mxCell id="x8ZqoaQMToTmZbeyhLuj-6" value="" style="rounded=1;whiteSpace=wrap;html=1;fontSize=25;" vertex="1" parent="1">
          <mxGeometry x="30" y="-1300" width="240" height="120" as="geometry" />
        </mxCell>
        <mxCell id="x8ZqoaQMToTmZbeyhLuj-7" value="Interrupt comes from LoRa transmitter, packet received" style="text;html=1;strokeColor=none;fillColor=none;align=center;verticalAlign=middle;whiteSpace=wrap;rounded=0;fontSize=12;" vertex="1" parent="1">
          <mxGeometry x="40" y="-1290" width="220" height="100" as="geometry" />
        </mxCell>
        <mxCell id="x8ZqoaQMToTmZbeyhLuj-18" style="edgeStyle=orthogonalEdgeStyle;rounded=0;orthogonalLoop=1;jettySize=auto;html=1;exitX=0.5;exitY=1;exitDx=0;exitDy=0;entryX=0.5;entryY=0;entryDx=0;entryDy=0;fontSize=12;" edge="1" parent="1" source="x8ZqoaQMToTmZbeyhLuj-13" target="x8ZqoaQMToTmZbeyhLuj-15">
          <mxGeometry relative="1" as="geometry" />
        </mxCell>
        <mxCell id="x8ZqoaQMToTmZbeyhLuj-13" value="" style="rounded=1;whiteSpace=wrap;html=1;fontSize=25;" vertex="1" parent="1">
          <mxGeometry x="30" y="-610" width="240" height="120" as="geometry" />
        </mxCell>
        <mxCell id="x8ZqoaQMToTmZbeyhLuj-14" value="Parse packet then, put pakcet into device_ctx rx_network_buff buffer." style="text;html=1;strokeColor=none;fillColor=none;align=center;verticalAlign=middle;whiteSpace=wrap;rounded=0;fontSize=12;" vertex="1" parent="1">
          <mxGeometry x="40" y="-600" width="220" height="100" as="geometry" />
        </mxCell>
        <mxCell id="x8ZqoaQMToTmZbeyhLuj-24" style="edgeStyle=orthogonalEdgeStyle;rounded=0;orthogonalLoop=1;jettySize=auto;html=1;exitX=0.5;exitY=1;exitDx=0;exitDy=0;entryX=0;entryY=0.5;entryDx=0;entryDy=0;fontSize=12;" edge="1" parent="1" source="x8ZqoaQMToTmZbeyhLuj-15" target="x8ZqoaQMToTmZbeyhLuj-22">
          <mxGeometry relative="1" as="geometry" />
        </mxCell>
        <mxCell id="x8ZqoaQMToTmZbeyhLuj-27" style="edgeStyle=orthogonalEdgeStyle;rounded=0;orthogonalLoop=1;jettySize=auto;html=1;exitX=1;exitY=0.5;exitDx=0;exitDy=0;entryX=0;entryY=0.5;entryDx=0;entryDy=0;fontSize=12;" edge="1" parent="1" source="x8ZqoaQMToTmZbeyhLuj-15" target="x8ZqoaQMToTmZbeyhLuj-20">
          <mxGeometry relative="1" as="geometry" />
        </mxCell>
        <mxCell id="x8ZqoaQMToTmZbeyhLuj-15" value="" style="rhombus;whiteSpace=wrap;html=1;fontSize=12;" vertex="1" parent="1">
          <mxGeometry x="30" y="-460" width="240" height="150" as="geometry" />
        </mxCell>
        <mxCell id="x8ZqoaQMToTmZbeyhLuj-17" value="Last packet received?" style="text;html=1;strokeColor=none;fillColor=none;align=center;verticalAlign=middle;whiteSpace=wrap;rounded=0;fontSize=12;" vertex="1" parent="1">
          <mxGeometry x="120" y="-400" width="60" height="30" as="geometry" />
        </mxCell>
        <mxCell id="x8ZqoaQMToTmZbeyhLuj-47" style="edgeStyle=orthogonalEdgeStyle;rounded=0;orthogonalLoop=1;jettySize=auto;html=1;exitX=1;exitY=0.5;exitDx=0;exitDy=0;entryX=0;entryY=0.5;entryDx=0;entryDy=0;fontSize=12;" edge="1" parent="1" source="x8ZqoaQMToTmZbeyhLuj-19" target="x8ZqoaQMToTmZbeyhLuj-30">
          <mxGeometry relative="1" as="geometry" />
        </mxCell>
        <mxCell id="x8ZqoaQMToTmZbeyhLuj-19" value="" style="triangle;whiteSpace=wrap;html=1;fontSize=12;" vertex="1" parent="1">
          <mxGeometry x="320" y="-407.5" width="60" height="45" as="geometry" />
        </mxCell>
        <mxCell id="x8ZqoaQMToTmZbeyhLuj-20" value="No" style="text;html=1;strokeColor=none;fillColor=none;align=center;verticalAlign=middle;whiteSpace=wrap;rounded=0;fontSize=12;" vertex="1" parent="1">
          <mxGeometry x="320" y="-400" width="40" height="30" as="geometry" />
        </mxCell>
        <mxCell id="x8ZqoaQMToTmZbeyhLuj-48" style="edgeStyle=orthogonalEdgeStyle;rounded=0;orthogonalLoop=1;jettySize=auto;html=1;exitX=1;exitY=0.5;exitDx=0;exitDy=0;entryX=0.5;entryY=0;entryDx=0;entryDy=0;fontSize=12;" edge="1" parent="1" source="x8ZqoaQMToTmZbeyhLuj-22" target="x8ZqoaQMToTmZbeyhLuj-28">
          <mxGeometry relative="1" as="geometry" />
        </mxCell>
        <mxCell id="x8ZqoaQMToTmZbeyhLuj-22" value="" style="triangle;whiteSpace=wrap;html=1;fontSize=12;rotation=90;" vertex="1" parent="1">
          <mxGeometry x="120" y="-280" width="60" height="45" as="geometry" />
        </mxCell>
        <mxCell id="x8ZqoaQMToTmZbeyhLuj-23" value="Yes" style="text;html=1;strokeColor=none;fillColor=none;align=center;verticalAlign=middle;whiteSpace=wrap;rounded=0;fontSize=12;" vertex="1" parent="1">
          <mxGeometry x="135" y="-280" width="30" height="30" as="geometry" />
        </mxCell>
        <mxCell id="x8ZqoaQMToTmZbeyhLuj-90" style="edgeStyle=orthogonalEdgeStyle;rounded=0;orthogonalLoop=1;jettySize=auto;html=1;exitX=0.5;exitY=1;exitDx=0;exitDy=0;entryX=0.5;entryY=0;entryDx=0;entryDy=0;fontSize=12;" edge="1" parent="1" source="x8ZqoaQMToTmZbeyhLuj-28" target="x8ZqoaQMToTmZbeyhLuj-88">
          <mxGeometry relative="1" as="geometry" />
        </mxCell>
        <mxCell id="x8ZqoaQMToTmZbeyhLuj-28" value="" style="rounded=1;whiteSpace=wrap;html=1;fontSize=25;" vertex="1" parent="1">
          <mxGeometry x="30" y="-200" width="240" height="120" as="geometry" />
        </mxCell>
        <mxCell id="x8ZqoaQMToTmZbeyhLuj-29" value="Rebuild message from packets" style="text;html=1;strokeColor=none;fillColor=none;align=center;verticalAlign=middle;whiteSpace=wrap;rounded=0;fontSize=12;" vertex="1" parent="1">
          <mxGeometry x="40" y="-190" width="220" height="100" as="geometry" />
        </mxCell>
        <mxCell id="x8ZqoaQMToTmZbeyhLuj-30" value="" style="rounded=1;whiteSpace=wrap;html=1;fontSize=25;" vertex="1" parent="1">
          <mxGeometry x="430" y="-445" width="240" height="120" as="geometry" />
        </mxCell>
        <mxCell id="x8ZqoaQMToTmZbeyhLuj-31" value="Do nothing" style="text;html=1;strokeColor=none;fillColor=none;align=center;verticalAlign=middle;whiteSpace=wrap;rounded=0;fontSize=12;" vertex="1" parent="1">
          <mxGeometry x="440" y="-435" width="220" height="100" as="geometry" />
        </mxCell>
        <mxCell id="x8ZqoaQMToTmZbeyhLuj-38" style="edgeStyle=orthogonalEdgeStyle;rounded=0;orthogonalLoop=1;jettySize=auto;html=1;exitX=1;exitY=0.5;exitDx=0;exitDy=0;entryX=0;entryY=0.5;entryDx=0;entryDy=0;fontSize=12;" edge="1" parent="1" source="x8ZqoaQMToTmZbeyhLuj-32" target="x8ZqoaQMToTmZbeyhLuj-37">
          <mxGeometry relative="1" as="geometry" />
        </mxCell>
        <mxCell id="x8ZqoaQMToTmZbeyhLuj-39" style="edgeStyle=orthogonalEdgeStyle;rounded=0;orthogonalLoop=1;jettySize=auto;html=1;exitX=0.5;exitY=1;exitDx=0;exitDy=0;entryX=0;entryY=0.5;entryDx=0;entryDy=0;fontSize=12;" edge="1" parent="1" source="x8ZqoaQMToTmZbeyhLuj-32" target="x8ZqoaQMToTmZbeyhLuj-34">
          <mxGeometry relative="1" as="geometry" />
        </mxCell>
        <mxCell id="x8ZqoaQMToTmZbeyhLuj-32" value="" style="rhombus;whiteSpace=wrap;html=1;fontSize=12;" vertex="1" parent="1">
          <mxGeometry x="30" y="-1127.5" width="240" height="150" as="geometry" />
        </mxCell>
        <mxCell id="x8ZqoaQMToTmZbeyhLuj-33" value="Is packet and header crc correct?" style="text;html=1;strokeColor=none;fillColor=none;align=center;verticalAlign=middle;whiteSpace=wrap;rounded=0;fontSize=12;" vertex="1" parent="1">
          <mxGeometry x="70" y="-1067.5" width="160" height="30" as="geometry" />
        </mxCell>
        <mxCell id="x8ZqoaQMToTmZbeyhLuj-86" style="edgeStyle=orthogonalEdgeStyle;rounded=0;orthogonalLoop=1;jettySize=auto;html=1;exitX=1;exitY=0.5;exitDx=0;exitDy=0;entryX=0.5;entryY=0;entryDx=0;entryDy=0;fontSize=12;" edge="1" parent="1" source="x8ZqoaQMToTmZbeyhLuj-34" target="x8ZqoaQMToTmZbeyhLuj-77">
          <mxGeometry relative="1" as="geometry" />
        </mxCell>
        <mxCell id="x8ZqoaQMToTmZbeyhLuj-34" value="" style="triangle;whiteSpace=wrap;html=1;fontSize=12;rotation=90;" vertex="1" parent="1">
          <mxGeometry x="120" y="-937.5" width="60" height="45" as="geometry" />
        </mxCell>
        <mxCell id="x8ZqoaQMToTmZbeyhLuj-35" value="Yes" style="text;html=1;strokeColor=none;fillColor=none;align=center;verticalAlign=middle;whiteSpace=wrap;rounded=0;fontSize=12;" vertex="1" parent="1">
          <mxGeometry x="135" y="-937.5" width="30" height="30" as="geometry" />
        </mxCell>
        <mxCell id="x8ZqoaQMToTmZbeyhLuj-46" style="edgeStyle=orthogonalEdgeStyle;rounded=0;orthogonalLoop=1;jettySize=auto;html=1;exitX=1;exitY=0.5;exitDx=0;exitDy=0;entryX=0;entryY=0.5;entryDx=0;entryDy=0;fontSize=12;" edge="1" parent="1" source="x8ZqoaQMToTmZbeyhLuj-36" target="x8ZqoaQMToTmZbeyhLuj-44">
          <mxGeometry relative="1" as="geometry" />
        </mxCell>
        <mxCell id="x8ZqoaQMToTmZbeyhLuj-36" value="" style="triangle;whiteSpace=wrap;html=1;fontSize=12;" vertex="1" parent="1">
          <mxGeometry x="310" y="-1075" width="60" height="45" as="geometry" />
        </mxCell>
        <mxCell id="x8ZqoaQMToTmZbeyhLuj-37" value="No" style="text;html=1;strokeColor=none;fillColor=none;align=center;verticalAlign=middle;whiteSpace=wrap;rounded=0;fontSize=12;" vertex="1" parent="1">
          <mxGeometry x="310" y="-1067.5" width="40" height="30" as="geometry" />
        </mxCell>
        <mxCell id="x8ZqoaQMToTmZbeyhLuj-44" value="" style="rounded=1;whiteSpace=wrap;html=1;fontSize=25;" vertex="1" parent="1">
          <mxGeometry x="410" y="-1112.5" width="240" height="120" as="geometry" />
        </mxCell>
        <mxCell id="x8ZqoaQMToTmZbeyhLuj-45" value="Request packet resend" style="text;html=1;strokeColor=none;fillColor=none;align=center;verticalAlign=middle;whiteSpace=wrap;rounded=0;fontSize=12;" vertex="1" parent="1">
          <mxGeometry x="420" y="-1102.5" width="220" height="100" as="geometry" />
        </mxCell>
        <mxCell id="x8ZqoaQMToTmZbeyhLuj-75" style="edgeStyle=orthogonalEdgeStyle;rounded=0;orthogonalLoop=1;jettySize=auto;html=1;exitX=0.5;exitY=1;exitDx=0;exitDy=0;entryX=0;entryY=0.5;entryDx=0;entryDy=0;fontSize=12;" edge="1" parent="1" source="x8ZqoaQMToTmZbeyhLuj-77" target="x8ZqoaQMToTmZbeyhLuj-79">
          <mxGeometry relative="1" as="geometry" />
        </mxCell>
        <mxCell id="x8ZqoaQMToTmZbeyhLuj-76" style="edgeStyle=orthogonalEdgeStyle;rounded=0;orthogonalLoop=1;jettySize=auto;html=1;exitX=1;exitY=0.5;exitDx=0;exitDy=0;entryX=0;entryY=0.5;entryDx=0;entryDy=0;fontSize=12;" edge="1" parent="1" source="x8ZqoaQMToTmZbeyhLuj-77" target="x8ZqoaQMToTmZbeyhLuj-83">
          <mxGeometry relative="1" as="geometry" />
        </mxCell>
        <mxCell id="x8ZqoaQMToTmZbeyhLuj-77" value="" style="rhombus;whiteSpace=wrap;html=1;fontSize=12;" vertex="1" parent="1">
          <mxGeometry x="30" y="-860" width="240" height="150" as="geometry" />
        </mxCell>
        <mxCell id="x8ZqoaQMToTmZbeyhLuj-78" value="Is device with address in ARP?" style="text;html=1;strokeColor=none;fillColor=none;align=center;verticalAlign=middle;whiteSpace=wrap;rounded=0;fontSize=12;" vertex="1" parent="1">
          <mxGeometry x="70" y="-800" width="160" height="30" as="geometry" />
        </mxCell>
        <mxCell id="x8ZqoaQMToTmZbeyhLuj-87" style="edgeStyle=orthogonalEdgeStyle;rounded=0;orthogonalLoop=1;jettySize=auto;html=1;exitX=1;exitY=0.5;exitDx=0;exitDy=0;entryX=0.5;entryY=0;entryDx=0;entryDy=0;fontSize=12;" edge="1" parent="1" source="x8ZqoaQMToTmZbeyhLuj-79" target="x8ZqoaQMToTmZbeyhLuj-13">
          <mxGeometry relative="1" as="geometry" />
        </mxCell>
        <mxCell id="x8ZqoaQMToTmZbeyhLuj-79" value="" style="triangle;whiteSpace=wrap;html=1;fontSize=12;rotation=90;" vertex="1" parent="1">
          <mxGeometry x="120" y="-680" width="60" height="45" as="geometry" />
        </mxCell>
        <mxCell id="x8ZqoaQMToTmZbeyhLuj-80" value="Yes" style="text;html=1;strokeColor=none;fillColor=none;align=center;verticalAlign=middle;whiteSpace=wrap;rounded=0;fontSize=12;" vertex="1" parent="1">
          <mxGeometry x="135" y="-680" width="30" height="30" as="geometry" />
        </mxCell>
        <mxCell id="x8ZqoaQMToTmZbeyhLuj-81" style="edgeStyle=orthogonalEdgeStyle;rounded=0;orthogonalLoop=1;jettySize=auto;html=1;exitX=1;exitY=0.5;exitDx=0;exitDy=0;entryX=0;entryY=0.5;entryDx=0;entryDy=0;fontSize=12;" edge="1" parent="1" source="x8ZqoaQMToTmZbeyhLuj-82" target="x8ZqoaQMToTmZbeyhLuj-84">
          <mxGeometry relative="1" as="geometry" />
        </mxCell>
        <mxCell id="x8ZqoaQMToTmZbeyhLuj-82" value="" style="triangle;whiteSpace=wrap;html=1;fontSize=12;" vertex="1" parent="1">
          <mxGeometry x="310" y="-807.5" width="60" height="45" as="geometry" />
        </mxCell>
        <mxCell id="x8ZqoaQMToTmZbeyhLuj-83" value="No" style="text;html=1;strokeColor=none;fillColor=none;align=center;verticalAlign=middle;whiteSpace=wrap;rounded=0;fontSize=12;" vertex="1" parent="1">
          <mxGeometry x="310" y="-800" width="40" height="30" as="geometry" />
        </mxCell>
        <mxCell id="x8ZqoaQMToTmZbeyhLuj-84" value="" style="rounded=1;whiteSpace=wrap;html=1;fontSize=25;" vertex="1" parent="1">
          <mxGeometry x="400" y="-845" width="240" height="120" as="geometry" />
        </mxCell>
        <mxCell id="x8ZqoaQMToTmZbeyhLuj-85" value="&lt;div&gt;Send back unathorized message.&lt;/div&gt;(Device needs to initiatate key exchange with PAKE)" style="text;html=1;strokeColor=none;fillColor=none;align=center;verticalAlign=middle;whiteSpace=wrap;rounded=0;fontSize=12;" vertex="1" parent="1">
          <mxGeometry x="410" y="-835" width="220" height="100" as="geometry" />
        </mxCell>
        <mxCell id="x8ZqoaQMToTmZbeyhLuj-93" style="edgeStyle=orthogonalEdgeStyle;rounded=0;orthogonalLoop=1;jettySize=auto;html=1;exitX=0.5;exitY=1;exitDx=0;exitDy=0;entryX=0.5;entryY=0;entryDx=0;entryDy=0;fontSize=12;" edge="1" parent="1" source="x8ZqoaQMToTmZbeyhLuj-88" target="x8ZqoaQMToTmZbeyhLuj-91">
          <mxGeometry relative="1" as="geometry" />
        </mxCell>
        <mxCell id="x8ZqoaQMToTmZbeyhLuj-88" value="" style="rounded=1;whiteSpace=wrap;html=1;fontSize=25;" vertex="1" parent="1">
          <mxGeometry x="30" y="-50" width="240" height="120" as="geometry" />
        </mxCell>
        <mxCell id="x8ZqoaQMToTmZbeyhLuj-89" value="&lt;div&gt;Extract auth tag from message&lt;/div&gt;&lt;div&gt;(last 16 bytes)&lt;br&gt;&lt;/div&gt;" style="text;html=1;strokeColor=none;fillColor=none;align=center;verticalAlign=middle;whiteSpace=wrap;rounded=0;fontSize=12;" vertex="1" parent="1">
          <mxGeometry x="40" y="-40" width="220" height="100" as="geometry" />
        </mxCell>
        <mxCell id="x8ZqoaQMToTmZbeyhLuj-98" style="edgeStyle=orthogonalEdgeStyle;rounded=0;orthogonalLoop=1;jettySize=auto;html=1;exitX=0.5;exitY=1;exitDx=0;exitDy=0;entryX=0.5;entryY=0;entryDx=0;entryDy=0;fontSize=12;" edge="1" parent="1" source="x8ZqoaQMToTmZbeyhLuj-91" target="x8ZqoaQMToTmZbeyhLuj-96">
          <mxGeometry relative="1" as="geometry" />
        </mxCell>
        <mxCell id="x8ZqoaQMToTmZbeyhLuj-91" value="" style="rounded=1;whiteSpace=wrap;html=1;fontSize=25;" vertex="1" parent="1">
          <mxGeometry x="30" y="100" width="240" height="120" as="geometry" />
        </mxCell>
        <mxCell id="x8ZqoaQMToTmZbeyhLuj-92" value="Decrypt message" style="text;html=1;strokeColor=none;fillColor=none;align=center;verticalAlign=middle;whiteSpace=wrap;rounded=0;fontSize=12;" vertex="1" parent="1">
          <mxGeometry x="40" y="110" width="220" height="100" as="geometry" />
        </mxCell>
        <mxCell id="x8ZqoaQMToTmZbeyhLuj-106" style="edgeStyle=orthogonalEdgeStyle;rounded=0;orthogonalLoop=1;jettySize=auto;html=1;exitX=1;exitY=0.5;exitDx=0;exitDy=0;entryX=0;entryY=0.5;entryDx=0;entryDy=0;fontSize=12;" edge="1" parent="1" source="x8ZqoaQMToTmZbeyhLuj-96" target="x8ZqoaQMToTmZbeyhLuj-103">
          <mxGeometry relative="1" as="geometry" />
        </mxCell>
        <mxCell id="x8ZqoaQMToTmZbeyhLuj-107" style="edgeStyle=orthogonalEdgeStyle;rounded=0;orthogonalLoop=1;jettySize=auto;html=1;exitX=0.5;exitY=1;exitDx=0;exitDy=0;entryX=0;entryY=0.5;entryDx=0;entryDy=0;fontSize=12;" edge="1" parent="1" source="x8ZqoaQMToTmZbeyhLuj-96" target="x8ZqoaQMToTmZbeyhLuj-99">
          <mxGeometry relative="1" as="geometry" />
        </mxCell>
        <mxCell id="x8ZqoaQMToTmZbeyhLuj-96" value="" style="rhombus;whiteSpace=wrap;html=1;fontSize=12;" vertex="1" parent="1">
          <mxGeometry x="30" y="250" width="240" height="150" as="geometry" />
        </mxCell>
        <mxCell id="x8ZqoaQMToTmZbeyhLuj-97" value="Is message auth tag and device auth tag are the same?" style="text;html=1;strokeColor=none;fillColor=none;align=center;verticalAlign=middle;whiteSpace=wrap;rounded=0;fontSize=12;" vertex="1" parent="1">
          <mxGeometry x="80" y="310" width="140" height="30" as="geometry" />
        </mxCell>
        <mxCell id="x8ZqoaQMToTmZbeyhLuj-110" style="edgeStyle=orthogonalEdgeStyle;rounded=0;orthogonalLoop=1;jettySize=auto;html=1;exitX=1;exitY=0.5;exitDx=0;exitDy=0;entryX=0.5;entryY=0;entryDx=0;entryDy=0;fontSize=12;" edge="1" parent="1" source="x8ZqoaQMToTmZbeyhLuj-99" target="x8ZqoaQMToTmZbeyhLuj-108">
          <mxGeometry relative="1" as="geometry" />
        </mxCell>
        <mxCell id="x8ZqoaQMToTmZbeyhLuj-99" value="" style="triangle;whiteSpace=wrap;html=1;fontSize=12;rotation=90;" vertex="1" parent="1">
          <mxGeometry x="120" y="440" width="60" height="45" as="geometry" />
        </mxCell>
        <mxCell id="x8ZqoaQMToTmZbeyhLuj-100" value="Yes" style="text;html=1;strokeColor=none;fillColor=none;align=center;verticalAlign=middle;whiteSpace=wrap;rounded=0;fontSize=12;" vertex="1" parent="1">
          <mxGeometry x="135" y="440" width="30" height="30" as="geometry" />
        </mxCell>
        <mxCell id="x8ZqoaQMToTmZbeyhLuj-101" style="edgeStyle=orthogonalEdgeStyle;rounded=0;orthogonalLoop=1;jettySize=auto;html=1;exitX=1;exitY=0.5;exitDx=0;exitDy=0;entryX=0;entryY=0.5;entryDx=0;entryDy=0;fontSize=12;" edge="1" parent="1" source="x8ZqoaQMToTmZbeyhLuj-102" target="x8ZqoaQMToTmZbeyhLuj-104">
          <mxGeometry relative="1" as="geometry" />
        </mxCell>
        <mxCell id="x8ZqoaQMToTmZbeyhLuj-102" value="" style="triangle;whiteSpace=wrap;html=1;fontSize=12;" vertex="1" parent="1">
          <mxGeometry x="310" y="302.5" width="60" height="45" as="geometry" />
        </mxCell>
        <mxCell id="x8ZqoaQMToTmZbeyhLuj-103" value="No" style="text;html=1;strokeColor=none;fillColor=none;align=center;verticalAlign=middle;whiteSpace=wrap;rounded=0;fontSize=12;" vertex="1" parent="1">
          <mxGeometry x="310" y="310" width="40" height="30" as="geometry" />
        </mxCell>
        <mxCell id="x8ZqoaQMToTmZbeyhLuj-104" value="" style="rounded=1;whiteSpace=wrap;html=1;fontSize=25;" vertex="1" parent="1">
          <mxGeometry x="420" y="265" width="240" height="120" as="geometry" />
        </mxCell>
        <mxCell id="x8ZqoaQMToTmZbeyhLuj-105" value="Send unathorized message.&lt;br&gt;(Device needs new key)" style="text;html=1;strokeColor=none;fillColor=none;align=center;verticalAlign=middle;whiteSpace=wrap;rounded=0;fontSize=12;" vertex="1" parent="1">
          <mxGeometry x="430" y="275" width="220" height="100" as="geometry" />
        </mxCell>
        <mxCell id="x8ZqoaQMToTmZbeyhLuj-113" style="edgeStyle=orthogonalEdgeStyle;rounded=0;orthogonalLoop=1;jettySize=auto;html=1;exitX=0.5;exitY=1;exitDx=0;exitDy=0;entryX=0.5;entryY=0;entryDx=0;entryDy=0;fontSize=12;" edge="1" parent="1" source="x8ZqoaQMToTmZbeyhLuj-108" target="x8ZqoaQMToTmZbeyhLuj-111">
          <mxGeometry relative="1" as="geometry" />
        </mxCell>
        <mxCell id="x8ZqoaQMToTmZbeyhLuj-108" value="" style="rounded=1;whiteSpace=wrap;html=1;fontSize=25;" vertex="1" parent="1">
          <mxGeometry x="30" y="520" width="240" height="120" as="geometry" />
        </mxCell>
        <mxCell id="x8ZqoaQMToTmZbeyhLuj-109" value="Send message to the message processor." style="text;html=1;strokeColor=none;fillColor=none;align=center;verticalAlign=middle;whiteSpace=wrap;rounded=0;fontSize=12;" vertex="1" parent="1">
          <mxGeometry x="40" y="530" width="220" height="100" as="geometry" />
        </mxCell>
        <mxCell id="x8ZqoaQMToTmZbeyhLuj-111" value="" style="ellipse;whiteSpace=wrap;html=1;fontSize=12;" vertex="1" parent="1">
          <mxGeometry x="105" y="670" width="90" height="60" as="geometry" />
        </mxCell>
        <mxCell id="x8ZqoaQMToTmZbeyhLuj-112" value="end" style="text;html=1;strokeColor=none;fillColor=none;align=center;verticalAlign=middle;whiteSpace=wrap;rounded=0;fontSize=12;" vertex="1" parent="1">
          <mxGeometry x="120" y="685" width="60" height="30" as="geometry" />
        </mxCell>
      </root>
    </mxGraphModel>
  </diagram>
</mxfile>
